<svg width="800" height="100" viewBox="0 0 800 100" fill="none" xmlns="http://www.w3.org/2000/svg">
<path d="M799.5 50C799.5 53.1673 796.92 56.4078 791.613 59.6501C786.339 62.8714 778.529 65.9964 768.424 68.9828C748.222 74.9532 718.964 80.3363 682.781 84.8592C610.421 93.9041 510.443 99.5 400 99.5C289.557 99.5 189.579 93.9041 117.219 84.8592C81.0361 80.3363 51.7781 74.9532 31.5757 68.9828C21.4707 65.9964 13.6607 62.8714 8.38723 59.6501C3.07952 56.4078 0.5 53.1673 0.5 50C0.5 46.8327 3.07952 43.5922 8.38723 40.3499C13.6607 37.1286 21.4707 34.0036 31.5757 31.0172C51.7781 25.0468 81.0361 19.6637 117.219 15.1408C189.579 6.09587 289.557 0.5 400 0.5C510.443 0.5 610.421 6.09587 682.781 15.1408C718.964 19.6637 748.222 25.0468 768.424 31.0172C778.529 34.0036 786.339 37.1286 791.613 40.3499C796.92 43.5922 799.5 46.8327 799.5 50Z" stroke="white"/>
</svg>
